<?xml version="1.0" standalone="no"?>
<!DOCTYPE svg PUBLIC "-//W3C//DTD SVG 20010904//EN"
 "http://www.w3.org/TR/2001/REC-SVG-20010904/DTD/svg10.dtd">
<svg version="1.0" xmlns="http://www.w3.org/2000/svg"
 width="662.000000pt" height="662.000000pt" viewBox="0 0 662.000000 662.000000"
 preserveAspectRatio="xMidYMid meet">
<metadata>
Created by potrace 1.11, written by Peter Selinger 2001-2013
</metadata>
<g transform="translate(0.000000,662.000000) scale(0.100000,-0.100000)"
fill="#000000" stroke="none">
<path d="M1510 5329 c1 -513 2 -534 22 -588 51 -137 171 -241 300 -258 55 -7
994 -10 1032 -3 l30 6 0 499 c1 275 -2 522 -6 550 -10 68 -59 163 -110 214
-24 23 -72 57 -108 74 l-65 32 -548 3 -548 3 1 -532z"/>
<path d="M3379 5853 c-1 -5 -2 -315 -3 -690 -1 -602 1 -683 14 -684 8 0 319
-1 690 -1 l675 -1 0 692 1 691 -688 0 c-378 0 -689 -3 -689 -7z"/>
<path d="M5535 5851 c-93 -23 -179 -84 -238 -170 -17 -25 -30 -46 -28 -46 1 0
-2 -13 -8 -28 -6 -16 -14 -52 -18 -80 -8 -67 -8 -1035 0 -1044 13 -12 1039 -6
1087 7 113 30 219 122 262 228 23 57 23 58 26 600 l3 542 -528 -1 c-290 -1
-541 -4 -558 -8z"/>
<path d="M490 3795 c-267 -267 -486 -487 -487 -488 -1 -2 217 -222 486 -491
l488 -488 487 487 c267 268 486 489 486 491 0 4 -968 974 -973 974 -1 0 -220
-218 -487 -485z"/>
<path d="M3379 3996 c-3 -2 -5 -1362 -2 -1372 5 -14 1371 -14 1376 1 2 5 3
316 3 690 l-1 680 -687 1 c-379 0 -689 0 -689 0z"/>
<path d="M5239 3986 c0 -6 -1 -317 -1 -691 l-1 -680 691 -1 692 0 -2 690 -3
691 -687 1 c-479 0 -688 -3 -689 -10z"/>
<path d="M1897 2133 c-1 0 -25 -3 -53 -6 -139 -13 -279 -135 -322 -280 -3 -12
-8 -264 -9 -559 l-4 -538 523 0 c548 0 572 2 658 46 42 21 140 113 140 131 0
7 3 13 8 13 9 0 41 76 49 116 3 16 6 264 7 552 1 457 -1 522 -14 523 -27 2
-982 4 -983 2z"/>
<path d="M3387 2130 c-10 -4 -12 -158 -12 -692 l0 -688 690 0 691 0 -1 691 0
691 -678 2 c-373 0 -683 -1 -690 -4z"/>
<path d="M5263 2132 c-28 -4 -25 59 -25 -552 0 -333 3 -501 11 -535 32 -133
134 -237 280 -284 22 -7 214 -10 562 -11 l529 0 0 522 c0 565 -2 583 -54 673
-50 85 -135 148 -236 175 -32 9 -187 13 -545 14 -275 0 -510 0 -522 -2z"/>
</g>
</svg>
