<svg id="Layer_1" data-name="Layer 1" xmlns="http://www.w3.org/2000/svg" viewBox="0 0 331.38 255.74"><defs><style>.cls-1{fill:#fff;}</style></defs><title>Turnos UNAHUR</title><g id="New_Symbol" data-name="New Symbol"><path class="cls-1" d="M262.19,19.26V69.19h49.93a19.26,19.26,0,0,0,19.26-19.26V0H281.45A19.26,19.26,0,0,0,262.19,19.26Z"/><rect class="cls-1" x="262.19" y="93.27" width="69.19" height="69.19"/><path class="cls-1" d="M312.12,186.54h-49a1,1,0,0,0-1,1v49a19.26,19.26,0,0,0,19.26,19.26h49.93V205.8A19.26,19.26,0,0,0,312.12,186.54Z"/><rect class="cls-1" x="168.92" width="69.19" height="69.19"/><rect class="cls-1" x="168.92" y="93.27" width="69.19" height="69.19"/><path class="cls-1" d="M125.58,0H75.64V49.93A19.26,19.26,0,0,0,94.91,69.19h49.93V19.26A19.26,19.26,0,0,0,125.58,0Z"/><rect class="cls-1" x="168.92" y="186.54" width="69.19" height="69.19"/><rect class="cls-1" x="14.33" y="93.27" width="69.19" height="69.19" transform="translate(-76.09 72.05) rotate(-45)"/><path class="cls-1" d="M75.64,205.8v49.93h49.93a19.26,19.26,0,0,0,19.26-19.26V186.54H94.91A19.26,19.26,0,0,0,75.64,205.8Z"/></g></svg>