<svg id="Layer_1" data-name="Layer 1" xmlns="http://www.w3.org/2000/svg" viewBox="0 0 331.38 255.74"><defs><style>.cls-1{fill:#726f6f;}.cls-2{fill:#63af2d;}</style></defs><title>Turnos UNAHUR</title><g id="New_Symbol" data-name="New Symbol"><path class="cls-1" d="M281.45,0h49.93a0,0,0,0,1,0,0V49.93a19.26,19.26,0,0,1-19.26,19.26H262.19a0,0,0,0,1,0,0V19.26A19.26,19.26,0,0,1,281.45,0Z"/><rect class="cls-1" x="262.19" y="93.27" width="69.19" height="69.19"/><path class="cls-1" d="M263.15,186.54h49a19.26,19.26,0,0,1,19.26,19.26v49.93a0,0,0,0,1,0,0H281.45a19.26,19.26,0,0,1-19.26-19.26v-49A1,1,0,0,1,263.15,186.54Z"/><rect class="cls-1" x="168.92" width="69.19" height="69.19"/><rect class="cls-1" x="168.92" y="93.27" width="69.19" height="69.19"/><path class="cls-1" d="M94.91,0h49.93a0,0,0,0,1,0,0V49.93a19.26,19.26,0,0,1-19.26,19.26H75.64a0,0,0,0,1,0,0V19.26A19.26,19.26,0,0,1,94.91,0Z" transform="translate(144.84 -75.64) rotate(90)"/><rect class="cls-1" x="168.92" y="186.54" width="69.19" height="69.19"/><rect class="cls-2" x="14.33" y="93.27" width="69.19" height="69.19" transform="translate(-76.09 72.05) rotate(-45)"/><path class="cls-1" d="M94.91,186.54h49.93a0,0,0,0,1,0,0v49.93a19.26,19.26,0,0,1-19.26,19.26H75.64a0,0,0,0,1,0,0V205.8A19.26,19.26,0,0,1,94.91,186.54Z"/></g></svg>