<svg id="Layer_1" data-name="Layer 1"
  xmlns="http://www.w3.org/2000/svg" viewBox="0 0 1572.1 420.88">
  <defs>
    <style>.cls-1{fill:#505050;}</style>
  </defs>
  <title>Turnos UNAHUR</title>
  <g id="New_Symbol" data-name="New Symbol">
    <path class="cls-1" d="M558.11,202.69Q554,198.19,554,186.78V94.14H587.3V50.34H554V0H490.92V50.34H465.09V94.14h25.83v100.5q0,31.26,15.53,46.6t48.1,15.35a116.44,116.44,0,0,0,35.56-5.43v-45.1a92.5,92.5,0,0,1-15.72,1.12Q562.22,207.18,558.11,202.69Z"/>
    <path class="cls-1" d="M730.29,192.39q-9.17,15.54-30.88,15.53-25.27,0-25.27-26V50.34H611.07V181.54q0,36.31,17.12,55.68t50.44,19.37q34.06,0,54.09-25.64l1.87,21.9h59.14V50.34H730.29Z"/>
    <path class="cls-1" d="M889.93,76.36l-2.06-26H828.73v202.5H891.8V124.64q8.42-18.71,38.18-18.71l20.77,1.5,1.12-58.58a61.52,61.52,0,0,0-17.59-2.25Q905.83,46.6,889.93,76.36Z"/>
    <path class="cls-1" d="M1085.31,102.47q6.18,7.21,6.18,22.55V252.84h63.26V122.4q-.56-38-16.19-56.89T1091.3,46.6q-36.87,0-57.83,27.51l-2.06-23.77H972.28v202.5h63.07v-143q9-14.6,27.51-14.6Q1079.14,95.26,1085.31,102.47Z"/>
    <path class="cls-1" d="M1279.2,46.6q-29.76,0-51.84,12.73a84.33,84.33,0,0,0-33.87,36.4q-11.79,23.68-11.79,54l.19,10.67q2.06,44.36,28.26,70.28t69.43,25.92q44.92,0,71.21-27.79t26.29-75.14v-2.25q0-48.47-26.2-76.64T1279.2,46.6ZM1314,156.08q-.75,51.84-34.44,51.84-17.22,0-26-13.1t-8.8-41.17l.19-11.42q2.62-47,34.25-47,34.81,0,34.81,54.46Z"/>
    <path class="cls-1" d="M1526.06,137.74a227.46,227.46,0,0,0-31.72-8q-18.06-3.37-26.29-8.61t-8.23-13.66a17.1,17.1,0,0,1,6.74-13.76q6.74-5.52,16.66-5.52,25.64,0,25.64,24.33h63.26q0-29.57-24.33-47.72T1483.39,46.6q-37.25,0-60.26,18.06t-23,45.95a49.37,49.37,0,0,0,8,27.89q8,12.17,23.39,20.68t38.93,13.75q23.58,5.24,32,10.11t8.42,12.91a16.76,16.76,0,0,1-6.46,13.66q-6.46,5.24-19.37,5.24-14,0-23-6.46t-9.36-20.49h-59q0,17.78,11.42,33.87T1437,247.23q20.4,9.36,46.41,9.36,39.11,0,63.72-17.41t24.61-45.1Q1571.72,153.47,1526.06,137.74Z"/>
    <path class="cls-1" d="M1044.76,385.2q0,11.53-6.31,17.88t-18.2,6.35q-11.75,0-18.09-6.38t-6.35-17.91V313.18H981.94v72.38q.15,16.49,10.51,25.9t27.8,9.41l3.72-.15q16.05-1.17,25.43-10.73t9.45-24.59V313.18h-14.08Z"/>
    <polygon class="cls-1" points="1148.66 395.41 1095.03 313.19 1080.95 313.19 1080.95 419.42 1095.03 419.42 1095.03 337.55 1148.51 419.42 1162.6 419.42 1162.6 313.19 1148.66 313.19 1148.66 395.41"/>
    <path class="cls-1" d="M1219.07,313.18,1178.5,419.42h14.45l10-27.8h44.51l10.14,27.8H1272l-40.64-106.23Zm-11.89,67,18-49.69,18.09,49.69Z"/>
    <polygon class="cls-1" points="1353.83 358.86 1300.28 358.86 1300.28 313.19 1286.27 313.19 1286.27 419.42 1300.28 419.42 1300.28 370.31 1353.83 370.31 1353.83 419.42 1367.91 419.42 1367.91 313.19 1353.83 313.19 1353.83 358.86"/>
    <path class="cls-1" d="M1453.5,385.2q0,11.53-6.31,17.88t-18.2,6.35q-11.75,0-18.09-6.38t-6.35-17.91V313.18h-13.86v72.38q.15,16.49,10.51,25.9t27.8,9.41l3.72-.15q16.05-1.17,25.43-10.73t9.45-24.59V313.18H1453.5Z"/>
    <path class="cls-1" d="M1556.71,362.43a28.6,28.6,0,0,0,5.36-17.29q0-15.61-9.67-23.79t-27.62-8.17h-35.17V419.42h14.08v-43h25l23.06,43h15v-.88l-25-45.09A32,32,0,0,0,1556.71,362.43ZM1525.22,365H1503.7V324.64h21.45q11.09.07,17,5.34t5.87,15.13q0,9.07-6.17,14.47T1525.22,365Z"/>
    <path class="cls-1" d="M262.19,20.67V70.61h49.93a19.26,19.26,0,0,0,19.26-19.26V1.41H281.45A19.26,19.26,0,0,0,262.19,20.67Z"/>
    <rect class="cls-1" x="262.19" y="94.68" width="69.19" height="69.19"/>
    <path class="cls-1" d="M312.12,188h-49a1,1,0,0,0-1,1v49a19.26,19.26,0,0,0,19.26,19.26h49.93V207.22A19.26,19.26,0,0,0,312.12,188Z"/>
    <rect class="cls-1" x="168.92" y="1.41" width="69.19" height="69.19"/>
    <rect class="cls-1" x="168.92" y="94.68" width="69.19" height="69.19"/>
    <path class="cls-1" d="M125.58,1.41H75.64V51.35A19.26,19.26,0,0,0,94.91,70.61h49.93V20.67A19.26,19.26,0,0,0,125.58,1.41Z"/>
    <rect class="cls-1" x="168.92" y="187.96" width="69.19" height="69.19"/>
    <rect class="cls-1" x="14.33" y="94.68" width="69.19" height="69.19" transform="translate(-77.09 72.46) rotate(-45)"/>
    <path class="cls-1" d="M75.64,207.22v49.93h49.93a19.26,19.26,0,0,0,19.26-19.26V188H94.91A19.26,19.26,0,0,0,75.64,207.22Z"/>
  </g>
</svg>
